<svg id="Layer_1" data-name="Layer 1" xmlns="http://www.w3.org/2000/svg" viewBox="0 0 372 372"><defs><style>.cls-1{fill:#64cdf2;}.cls-2{fill:#3ab1cc;}.cls-3,.cls-6,.cls-7{fill:none;stroke:#30241c;stroke-miterlimit:10;stroke-width:4px;}.cls-4{fill:#ed4f3e;}.cls-5{fill:#d3dbdd;}.cls-6,.cls-7{stroke-linecap:round;}.cls-7{stroke-dasharray:1.98 19.84;}</style></defs><title>design-fundamentals</title><rect class="cls-1" x="-9.55" y="150.99" width="377.75" height="56.66" transform="translate(-74.28 179.32) rotate(-45)"/><rect class="cls-2" x="17.16" y="196.59" width="377.75" height="18.89" transform="translate(-85.34 206.03) rotate(-45)"/><circle class="cls-3" cx="286.17" cy="72.48" r="9.44" transform="translate(32.57 223.59) rotate(-45)"/><line class="cls-3" x1="38.81" y1="279.77" x2="45.49" y2="286.44"/><line class="cls-3" x1="52.45" y1="266.13" x2="59.12" y2="272.81"/><line class="cls-3" x1="65.8" y1="252.78" x2="72.48" y2="259.45"/><line class="cls-3" x1="79.16" y1="239.42" x2="85.83" y2="246.1"/><line class="cls-3" x1="92.51" y1="226.07" x2="99.19" y2="232.74"/><line class="cls-3" x1="106.15" y1="212.43" x2="112.82" y2="219.11"/><line class="cls-3" x1="119.5" y1="199.08" x2="126.18" y2="205.75"/><line class="cls-3" x1="132.86" y1="185.72" x2="139.53" y2="192.4"/><line class="cls-3" x1="145.93" y1="172.65" x2="152.61" y2="179.32"/><line class="cls-3" x1="159.57" y1="159.01" x2="166.25" y2="165.69"/><line class="cls-3" x1="172.92" y1="145.66" x2="179.6" y2="152.33"/><line class="cls-3" x1="186.28" y1="132.3" x2="192.96" y2="138.98"/><line class="cls-3" x1="199.36" y1="119.22" x2="206.03" y2="125.9"/><line class="cls-3" x1="212.99" y1="105.59" x2="219.67" y2="112.27"/><line class="cls-3" x1="226.35" y1="92.23" x2="233.02" y2="98.91"/><line class="cls-3" x1="239.7" y1="78.88" x2="246.38" y2="85.56"/><rect class="cls-4" x="160.92" y="17.34" width="55.48" height="343.58" transform="translate(-78.48 188.8) rotate(-45)"/><rect class="cls-5" x="290.29" y="307.34" width="55.48" height="22.35" transform="translate(-132.07 318.17) rotate(-45)"/><polygon class="cls-5" points="27.12 27.59 86.8 48.04 47.57 87.28 27.12 27.59"/><polygon class="cls-4" points="27.12 27.59 51.36 35.9 35.43 51.84 27.12 27.59"/><line class="cls-3" x1="103.49" y1="58.06" x2="57.58" y2="103.97"/><line class="cls-3" x1="116.85" y1="71.42" x2="70.94" y2="117.33"/><line class="cls-3" x1="130.2" y1="84.77" x2="84.29" y2="130.68"/><line class="cls-3" x1="143.56" y1="98.13" x2="97.65" y2="144.04"/><rect class="cls-3" x="242.09" y="208.78" width="16.76" height="81.45" transform="translate(-103.06 250.18) rotate(-45)"/><path class="cls-6" d="M321.44,112.25l.48.88"/><path class="cls-7" d="M330.13,131.18A153.15,153.15,0,0,1,123.72,324.95"/><path class="cls-6" d="M114.84,320.57l-.88-.47"/></svg>