<svg id="Layer_1" data-name="Layer 1" xmlns="http://www.w3.org/2000/svg" viewBox="0 0 372 372"><defs><style>.cls-1{fill:#bac4c6;}.cls-2{fill:#d3dbdd;}.cls-3{fill:#fff;}.cls-4{fill:#64cdf2;}.cls-5{fill:#3ab1cc;}.cls-6{fill:none;stroke:#30241c;stroke-miterlimit:10;stroke-width:4px;}.cls-7{fill:#ed4f3e;}</style></defs><title>elearning</title><path class="cls-1" d="M346,116.52a12,12,0,0,0-12-12H38a12,12,0,0,0-12,12V287H346Z"/><path class="cls-2" d="M38,312.35H334a12,12,0,0,0,12-12V287H26v13.33A12,12,0,0,0,38,312.35Z"/><rect class="cls-3" x="42" y="120.52" width="287.5" height="151.5"/><rect class="cls-1" x="146" y="312.35" width="80" height="16.17"/><polygon class="cls-2" points="226 328.52 146 328.52 133.83 346.02 238.17 346.02 226 328.52"/><rect class="cls-4" x="154" y="58.02" width="144" height="214"/><rect class="cls-5" x="154" y="58.02" width="16" height="214"/><rect class="cls-6" x="233.67" y="25.98" width="112.33" height="63.71"/><line class="cls-6" x1="250" y1="42.02" x2="329.5" y2="42.02"/><line class="cls-6" x1="250" y1="57.83" x2="329.5" y2="57.83"/><line class="cls-6" x1="250" y1="74.02" x2="329.5" y2="74.02"/><line class="cls-6" x1="209.67" y1="138.02" x2="257.67" y2="138.02"/><line class="cls-6" x1="209.67" y1="154.02" x2="257.67" y2="154.02"/><line class="cls-6" x1="209.67" y1="170.02" x2="257.67" y2="170.02"/><rect class="cls-7" x="106" y="42.02" width="16" height="176"/><polygon class="cls-2" points="114 26.02 106 42.02 122 42.02 114 26.02"/><polyline class="cls-7" points="118 34.02 114 26.02 110 34.02"/><rect class="cls-2" x="106" y="218.02" width="15.75" height="9"/><rect class="cls-4" x="58" y="74.02" width="16" height="176"/><polygon class="cls-2" points="66 58.02 58 74.02 74 74.02 66 58.02"/><polyline class="cls-4" points="70 66.02 66 58.02 62 66.02"/><rect class="cls-2" x="58" y="250.02" width="15.75" height="9"/><rect class="cls-6" x="90" y="234.52" width="191.75" height="31.25"/><line class="cls-6" x1="106" y1="234.52" x2="106" y2="249.9"/><line class="cls-6" x1="146.25" y1="234.52" x2="146.25" y2="249.9"/><line class="cls-6" x1="121.75" y1="234.52" x2="121.75" y2="242.77"/><line class="cls-6" x1="113.88" y1="234.52" x2="113.88" y2="242.77"/><line class="cls-6" x1="137.5" y1="234.52" x2="137.5" y2="242.77"/><line class="cls-6" x1="129.63" y1="234.52" x2="129.63" y2="242.77"/><line class="cls-6" x1="146.25" y1="234.52" x2="146.25" y2="249.9"/><line class="cls-6" x1="186.5" y1="234.52" x2="186.5" y2="249.9"/><line class="cls-6" x1="162" y1="234.52" x2="162" y2="242.77"/><line class="cls-6" x1="154.13" y1="234.52" x2="154.13" y2="242.77"/><line class="cls-6" x1="177.75" y1="234.52" x2="177.75" y2="242.77"/><line class="cls-6" x1="169.88" y1="234.52" x2="169.88" y2="242.77"/><line class="cls-6" x1="186.5" y1="234.52" x2="186.5" y2="249.9"/><line class="cls-6" x1="226.75" y1="234.52" x2="226.75" y2="249.9"/><line class="cls-6" x1="202.25" y1="234.52" x2="202.25" y2="242.77"/><line class="cls-6" x1="194.38" y1="234.52" x2="194.38" y2="242.77"/><line class="cls-6" x1="218" y1="234.52" x2="218" y2="242.77"/><line class="cls-6" x1="210.13" y1="234.52" x2="210.13" y2="242.77"/><line class="cls-6" x1="226.75" y1="234.52" x2="226.75" y2="249.9"/><line class="cls-6" x1="242.5" y1="234.52" x2="242.5" y2="242.77"/><line class="cls-6" x1="234.63" y1="234.52" x2="234.63" y2="242.77"/><line class="cls-6" x1="258.25" y1="234.52" x2="258.25" y2="242.77"/><line class="cls-6" x1="250.38" y1="234.52" x2="250.38" y2="242.77"/><circle class="cls-6" cx="265.88" cy="250.02" r="4.13"/><polyline class="cls-6" points="122 74.02 185.75 74.02 185.75 138.02 89.5 138.02 89.5 74.02 106 74.02"/><polyline class="cls-6" points="89.5 74.02 138 112.52 185.75 74.02"/><line class="cls-6" x1="129.5" y1="105.77" x2="89.5" y2="138.02"/><line class="cls-6" x1="185.75" y1="138.02" x2="145.75" y2="106.27"/></svg>