<svg id="Layer_1" data-name="Layer 1" xmlns="http://www.w3.org/2000/svg" viewBox="0 0 372 372"><defs><style>.cls-1{fill:#ed4f3e;}.cls-2{fill:#fff;}.cls-3{fill:none;stroke:#3a3a3a;stroke-linecap:round;stroke-linejoin:round;stroke-width:4px;}.cls-4{fill:#64cdf2;}</style></defs><title>performance-support</title><rect class="cls-1" x="58.08" y="42.9" width="255.83" height="320"/><rect class="cls-2" x="89.98" y="73.56" width="192.5" height="258"/><polyline class="cls-3" points="89.75 331.89 89.75 73.9 282.25 73.9"/><path class="cls-4" d="M219,42.59c-16.55,0-16.68-16.81-16.68-16.81a16.68,16.68,0,0,0-33.36,0,17,17,0,0,0,.16,2.2c-.45,4.79-2.93,14.35-16.71,14.35-16.55,0-16.64,15.77-16.64,15.77h100S235.53,42.59,219,42.59Z"/><path class="cls-3" d="M219.44,44.39c-16.55,0-16.68-16.81-16.68-16.81a16.68,16.68,0,1,0-33.2,2.2c-.45,4.79-2.94,14.35-16.71,14.35-16.55,0-16.64,15.77-16.64,15.77h100S236,44.39,219.44,44.39Z"/><circle class="cls-3" cx="186.23" cy="26.9" r="3.67"/><line class="cls-3" x1="122.41" y1="186.89" x2="153.75" y2="218.23"/><line class="cls-3" x1="122.75" y1="218.23" x2="153.58" y2="187.4"/><line class="cls-3" x1="218.41" y1="107.23" x2="249.75" y2="138.56"/><line class="cls-3" x1="218.75" y1="138.56" x2="249.58" y2="107.73"/><line class="cls-3" x1="218.41" y1="266.9" x2="249.75" y2="298.23"/><line class="cls-3" x1="218.75" y1="298.23" x2="249.58" y2="267.4"/><circle class="cls-1" cx="158.08" cy="272.9" r="8.67"/><circle class="cls-3" cx="154.42" cy="266.9" r="8.67"/><path class="cls-3" d="M177.67,123.78S231,202,163.08,262.9"/><polyline class="cls-3" points="170.94 135.34 176.93 120.77 191.73 126.85"/><line class="cls-3" x1="74.08" y1="74.9" x2="58.08" y2="74.9"/><line class="cls-3" x1="74.08" y1="58.9" x2="58.08" y2="58.9"/><line class="cls-3" x1="74.08" y1="106.9" x2="58.08" y2="106.9"/><line class="cls-3" x1="74.08" y1="90.89" x2="58.08" y2="90.89"/><line class="cls-3" x1="74.08" y1="138.89" x2="58.08" y2="138.89"/><line class="cls-3" x1="74.08" y1="122.9" x2="58.08" y2="122.9"/><line class="cls-3" x1="74.08" y1="170.9" x2="58.08" y2="170.9"/><line class="cls-3" x1="74.08" y1="154.9" x2="58.08" y2="154.9"/><line class="cls-3" x1="74.08" y1="202.9" x2="58.08" y2="202.9"/><line class="cls-3" x1="74.08" y1="186.89" x2="58.08" y2="186.89"/><line class="cls-3" x1="74.08" y1="234.89" x2="58.08" y2="234.89"/><line class="cls-3" x1="74.08" y1="218.9" x2="58.08" y2="218.9"/><line class="cls-3" x1="74.08" y1="267.56" x2="58.08" y2="267.56"/><line class="cls-3" x1="74.08" y1="251.56" x2="58.08" y2="251.56"/><line class="cls-3" x1="74.08" y1="299.56" x2="58.08" y2="299.56"/><line class="cls-3" x1="74.08" y1="283.56" x2="58.08" y2="283.56"/><line class="cls-3" x1="74.08" y1="314.9" x2="58.08" y2="314.9"/><line class="cls-3" x1="74.08" y1="346.9" x2="58.08" y2="346.9"/><line class="cls-3" x1="74.08" y1="330.89" x2="58.08" y2="330.89"/></svg>