<svg id="Layer_1" data-name="Layer 1" xmlns="http://www.w3.org/2000/svg" viewBox="0 0 372 372"><defs><style>.cls-1{fill:#bac4c6;}.cls-2{fill:#d3dbdd;}.cls-3{fill:none;stroke:#30241c;stroke-miterlimit:10;stroke-width:4px;}.cls-4{fill:#ed4f3e;}.cls-5{fill:#fff;}.cls-6{fill:#64cdf2;}</style></defs><title>portfolio</title><path class="cls-1" d="M41.83,346A15.82,15.82,0,0,1,26,330.17H58A15.82,15.82,0,0,1,42.17,346Z"/><path class="cls-2" d="M58,26V330.17A15.82,15.82,0,0,1,42.17,346H330a15.82,15.82,0,0,0,15.83-15.83H346V26Z"/><rect class="cls-3" x="106.33" y="43" width="223.33" height="14"/><line class="cls-3" x1="122" y1="43" x2="122" y2="57"/><line class="cls-3" x1="138" y1="43" x2="138" y2="57"/><line class="cls-3" x1="154" y1="43" x2="154" y2="57"/><line class="cls-3" x1="170" y1="43" x2="170" y2="57"/><line class="cls-3" x1="186" y1="43" x2="186" y2="57"/><line class="cls-3" x1="202" y1="43" x2="202" y2="57"/><line class="cls-3" x1="218" y1="43" x2="218" y2="57"/><line class="cls-3" x1="234" y1="43" x2="234" y2="57"/><line class="cls-3" x1="250" y1="43" x2="250" y2="57"/><line class="cls-3" x1="266" y1="43" x2="266" y2="57"/><line class="cls-3" x1="282" y1="43" x2="282" y2="57"/><line class="cls-3" x1="298" y1="43" x2="298" y2="57"/><line class="cls-3" x1="314" y1="43" x2="314" y2="57"/><rect class="cls-3" x="73.5" y="74" width="64.5" height="16"/><rect class="cls-3" x="169.75" y="74" width="64.5" height="16"/><rect class="cls-3" x="265.75" y="74" width="64.5" height="16"/><rect class="cls-4" x="73.5" y="106.25" width="64.5" height="47.75"/><rect class="cls-3" x="65.46" y="99.33" width="64.5" height="47.75"/><rect class="cls-5" x="169.75" y="106.25" width="64.5" height="47.75"/><rect class="cls-5" x="265.75" y="106.25" width="64.5" height="47.75"/><line class="cls-3" x1="73.5" y1="170" x2="137.5" y2="170"/><line class="cls-3" x1="73.5" y1="178.25" x2="137.5" y2="178.25"/><line class="cls-3" x1="73.5" y1="186" x2="121.92" y2="186"/><line class="cls-3" x1="170" y1="170" x2="234" y2="170"/><line class="cls-3" x1="170" y1="178.25" x2="234" y2="178.25"/><line class="cls-3" x1="170" y1="186" x2="218.42" y2="186"/><line class="cls-3" x1="266" y1="170" x2="330" y2="170"/><line class="cls-3" x1="266" y1="178.25" x2="330" y2="178.25"/><line class="cls-3" x1="266" y1="186" x2="314.42" y2="186"/><rect class="cls-5" x="73.5" y="202" width="64.5" height="47.75"/><rect class="cls-6" x="169.75" y="202" width="64.5" height="47.75"/><rect class="cls-5" x="265.75" y="202" width="64.5" height="47.75"/><line class="cls-3" x1="73.5" y1="265.75" x2="137.5" y2="265.75"/><line class="cls-3" x1="73.5" y1="274" x2="137.5" y2="274"/><line class="cls-3" x1="73.5" y1="281.75" x2="121.92" y2="281.75"/><line class="cls-3" x1="170" y1="265.75" x2="234" y2="265.75"/><line class="cls-3" x1="170" y1="274" x2="234" y2="274"/><line class="cls-3" x1="170" y1="281.75" x2="218.42" y2="281.75"/><line class="cls-3" x1="266" y1="265.75" x2="330" y2="265.75"/><line class="cls-3" x1="266" y1="274" x2="330" y2="274"/><line class="cls-3" x1="266" y1="281.75" x2="314.42" y2="281.75"/></svg>