<svg id="Layer_1" data-name="Layer 1" xmlns="http://www.w3.org/2000/svg" viewBox="0 0 372 372"><defs><style>.cls-1{fill:#3ab1cc;}.cls-2{fill:#64cdf2;}.cls-3{fill:#ed4f3e;}.cls-4{fill:#d8d8d8;}.cls-5{fill:#fff;}.cls-6,.cls-7,.cls-8{fill:none;stroke:#30241c;stroke-width:4px;}.cls-6{stroke-miterlimit:10;}.cls-7{stroke-linecap:round;}.cls-7,.cls-8{stroke-linejoin:round;}.cls-8{stroke-linecap:square;}</style></defs><title>systems-design</title><polygon class="cls-1" points="282 42 250.5 42 26 42 26 250 314 250 314 42 282 42"/><polygon class="cls-2" points="314 74 282.5 74 58 74 26 250 314 250 346 74 314 74"/><rect class="cls-3" x="43" y="26" width="79" height="16"/><polygon class="cls-4" points="106.49 287.87 88.74 287.87 26 287.87 26 346 115.43 346 115.43 287.87 106.49 287.87"/><rect class="cls-3" x="30.75" y="282.4" width="22.08" height="5.47"/><polygon class="cls-4" points="221.77 287.87 204.03 287.87 141.28 287.87 141.28 346 230.71 346 230.71 287.87 221.77 287.87"/><rect class="cls-3" x="146.04" y="282.4" width="22.08" height="5.47"/><polygon class="cls-4" points="337.06 287.87 319.31 287.87 256.57 287.87 256.57 346 346 346 346 287.87 337.06 287.87"/><rect class="cls-3" x="261.32" y="282.4" width="22.08" height="5.47"/><circle class="cls-5" cx="185.86" cy="162" r="54.64"/><path class="cls-6" d="M152.3,140.22a40,40,0,0,0,55.35,55.35"/><path class="cls-6" d="M219.43,183.78a40,40,0,0,0-55.35-55.35"/><polyline class="cls-6" points="141.45 144.4 151.84 140.22 156.02 150.61"/><polyline class="cls-6" points="216.26 173.04 219.43 183.78 230.17 180.61"/><circle class="cls-7" cx="70.71" cy="316.94" r="9.4"/><circle class="cls-7" cx="186" cy="316.94" r="9.4"/><circle class="cls-7" cx="301.29" cy="316.94" r="9.4"/><polyline class="cls-6" points="301.29 307.54 301.29 266 70.72 266 70.72 307.54"/><line class="cls-8" x1="186" y1="250" x2="186" y2="307.54"/></svg>