<svg id="Layer_1" data-name="Layer 1" xmlns="http://www.w3.org/2000/svg" viewBox="0 0 372 372"><defs><style>.cls-1,.cls-4{fill:none;stroke:#30241c;stroke-width:4px;}.cls-1{stroke-linecap:round;stroke-linejoin:round;stroke-dasharray:0.5 40;}.cls-2{fill:#64cdf2;}.cls-3{fill:#3ab1cc;}.cls-4{stroke-miterlimit:10;}.cls-5{fill:#ed4f3e;}.cls-6{fill:#fff;}.cls-7{fill:#30241c;}.cls-8{fill:#bac4c6;}.cls-9{fill:#d3dbdd;}</style></defs><title>tools</title><circle class="cls-1" cx="186" cy="186.07" r="160"/><rect class="cls-2" x="3.21" y="194.86" width="314.62" height="46.84" transform="translate(-107.33 177.43) rotate(-45)"/><rect class="cls-3" x="101.71" y="230.24" width="46.84" height="46.84" transform="translate(-142.72 162.77) rotate(-45)"/><line class="cls-4" x1="65.84" y1="346.07" x2="32.72" y2="312.95"/><line class="cls-4" x1="65.73" y1="295.42" x2="252.58" y2="107.84"/><line class="cls-4" x1="81.16" y1="310.85" x2="268.01" y2="123.27"/><rect class="cls-5" x="163.85" y="116.3" width="46.84" height="249.79" transform="translate(-115.7 203.07) rotate(-45)"/><line class="cls-4" x1="259.03" y1="346.07" x2="292.14" y2="312.95"/><circle class="cls-4" cx="253.74" cy="307.2" r="12.36" transform="translate(-142.91 269.38) rotate(-45)"/><circle class="cls-6" cx="253.74" cy="307.2" r="4.72" transform="translate(-142.9 269.34) rotate(-44.99)"/><path class="cls-7" d="M294.54,81.88l-4,28.19L268.21,87.76l26.34-5.88m4.78-5.17-39.09,8.72,33.12,33.12,6-41.84Z"/><path class="cls-8" d="M166,54.37,137.59,25.93,115.52,48s11,11,0,22.08-22.08,0-22.08,0L49.28,114.25c-13.14,27.46-19.12,55.4-21.63,78.51-3.43,31.47-.45,54-.45,54L147.94,126l1.21-.17s-11-11,0-22.08,22.08,0,22.08,0l22.08-22.08Z"/><path class="cls-9" d="M118.31,87.82a15.05,15.05,0,0,1,25.31-11L166,54.37,137.59,25.93,115.52,48s11,11,0,22.08-22.08,0-22.08,0L49.28,114.25c-13.14,27.46-19.12,55.4-21.63,78.51l94.7-94.7A15,15,0,0,1,118.31,87.82Z"/><rect class="cls-2" x="74.65" y="97.27" width="15.61" height="78.22" transform="translate(-72.29 98.26) rotate(-45)"/><line class="cls-4" x1="137.59" y1="25.93" x2="193.31" y2="81.65"/><polygon class="cls-5" points="323.69 64.26 304.19 70.76 310.69 51.26 323.69 64.26"/><line class="cls-4" x1="74.91" y1="128.84" x2="90" y2="143.93"/><line class="cls-4" x1="74.91" y1="143.93" x2="90" y2="128.84"/></svg>