<svg id="Layer_1" data-name="Layer 1" xmlns="http://www.w3.org/2000/svg" viewBox="0 0 372 372"><defs><style>.cls-1{fill:#ed4f3e;}.cls-2{fill:#64cdf2;}.cls-3{fill:#3ab1cc;}.cls-4{fill:none;stroke:#30241c;stroke-miterlimit:10;stroke-width:4px;}.cls-5{fill:#fff;}</style></defs><title>video</title><rect class="cls-1" x="26" y="250" width="159.86" height="96" rx="12" ry="12"/><path class="cls-2" d="M202,122V26H42v96s0,32,32,32H234S202,154,202,122Z"/><path class="cls-3" d="M266.08,122c0-32,32-32,32-32H138s-32,0-32,32-32,32-32,32l160.38.15C238.28,154,266.08,151.76,266.08,122Z"/><path class="cls-4" d="M42,122V26H26v96s0,32,32,32H74C42,154,42,122,42,122Z"/><path class="cls-4" d="M218,122V26H202v96c0,32,32,32,32,32h16S218,154,218,122Z"/><path class="cls-4" d="M74,154s32,0,32-32,32-32,32-32H122s-32,0-32,32-32,32-32,32"/><path class="cls-2" d="M298,90H138s32,0,32,32V282H330V122S330,90,298,90Z"/><path class="cls-4" d="M138,90H122s32,0,32,32V282h16V122C170,90,138,90,138,90Z"/><path class="cls-4" d="M346,122s0-32-32-32H298c32,0,32,32,32,32V282h16Z"/><line class="cls-4" x1="298.08" y1="90" x2="130" y2="90"/><line class="cls-4" x1="42" y1="41" x2="202.67" y2="41"/><line class="cls-4" x1="169.5" y1="138" x2="330.5" y2="138"/><line class="cls-4" x1="169.5" y1="201.75" x2="330.5" y2="201.75"/><line class="cls-4" x1="169.5" y1="266" x2="330.5" y2="266"/><line class="cls-4" x1="42" y1="106" x2="108.31" y2="106"/><polygon class="cls-5" points="88.62 278.5 88.62 317.75 123.24 297.66 88.62 278.5"/><line class="cls-4" x1="90" y1="186" x2="202.67" y2="186"/><line class="cls-4" x1="58" y1="202" x2="123.24" y2="202"/><line class="cls-4" x1="186.5" y1="58" x2="266" y2="58"/><line class="cls-4" x1="250" y1="41" x2="298.08" y2="41"/><line class="cls-4" x1="266" y1="314" x2="314" y2="314"/><line class="cls-4" x1="234" y1="329.5" x2="266" y2="329.5"/></svg>