<?xml version="1.0" encoding="utf-8"?>
<!-- Generator: Adobe Illustrator 21.0.0, SVG Export Plug-In . SVG Version: 6.00 Build 0)  -->
<svg version="1.1" id="Layer_1" xmlns="http://www.w3.org/2000/svg" xmlns:xlink="http://www.w3.org/1999/xlink" x="0px" y="0px"
	 viewBox="0 0 372 372" style="enable-background:new 0 0 372 372;" xml:space="preserve">
<style type="text/css">
	.st0{fill:#D3DBDD;}
	.st1{fill:#ED4F3E;}
	.st2{fill:#64CDF2;}
	.st3{fill:none;stroke:#30241C;stroke-width:4;stroke-miterlimit:10;}
</style>
<g>
	<rect x="90" y="26.2" class="st0" width="192" height="32"/>
	<rect x="90" y="299.2" class="st0" width="192" height="46.6"/>
	<rect x="26" y="74.2" class="st1" width="96" height="96"/>
	<rect x="266" y="106.2" class="st2" width="80" height="80"/>
	<rect x="90" y="26.2" class="st3" width="192" height="319.6"/>
	<line class="st3" x1="170" y1="42.2" x2="202" y2="42.2"/>
	<line class="st3" x1="154" y1="322.5" x2="218" y2="322.5"/>
	<circle class="st3" cx="250" cy="322.2" r="4"/>
	<rect x="106" y="253.7" class="st3" width="28.5" height="28.5"/>
	<rect x="148.8" y="253.7" class="st3" width="28.5" height="28.5"/>
	<rect x="194.8" y="253.7" class="st1" width="28.5" height="28.5"/>
	<rect x="237.5" y="253.7" class="st3" width="28.5" height="28.5"/>
	<polyline class="st3" points="26,202 209,202 209,234.2 	"/>
	<polyline class="st3" points="199,224.2 209,234.2 219,224.2 	"/>
	<polyline class="st3" points="346,90.2 250,90.2 250,234.2 	"/>
	<polyline class="st3" points="260,224.2 250,234.2 240,224.2 	"/>
	<line class="st3" x1="138" y1="74.2" x2="186.5" y2="74.2"/>
	<line class="st3" x1="138" y1="90.2" x2="186.5" y2="90.2"/>
	<line class="st3" x1="138" y1="106.2" x2="186.5" y2="106.2"/>
	<line class="st3" x1="138" y1="138.2" x2="154" y2="138.2"/>
	<line class="st3" x1="138" y1="152.2" x2="146" y2="152.2"/>
	<line class="st3" x1="177.2" y1="152.2" x2="185.2" y2="152.2"/>
	<line class="st3" x1="158.2" y1="152.2" x2="166.2" y2="152.2"/>
	<line class="st3" x1="42" y1="218.2" x2="106" y2="218.2"/>
	<line class="st3" x1="42" y1="234.2" x2="106" y2="234.2"/>
</g>
</svg>
