<?xml version="1.0" encoding="utf-8"?>
<!-- Generator: Adobe Illustrator 21.0.0, SVG Export Plug-In . SVG Version: 6.00 Build 0)  -->
<svg version="1.1" id="Layer_1" xmlns="http://www.w3.org/2000/svg" xmlns:xlink="http://www.w3.org/1999/xlink" x="0px" y="0px"
	 viewBox="0 0 372 372" style="enable-background:new 0 0 372 372;" xml:space="preserve">
<style type="text/css">
	.st0{fill:#D3DBDD;}
	.st1{fill:#BAC4C6;}
	.st2{fill:none;stroke:#30241C;stroke-width:4;stroke-miterlimit:10;}
	.st3{fill:#FFFFFF;stroke:#30241C;stroke-width:4;stroke-miterlimit:10;}
	.st4{fill:#ED4F3E;}
	.st5{fill:#64CDF2;}
</style>
<g>
	<path class="st0" d="M298,170.2c0,59.6-50.1,107.9-112,107.9c-61.9,0-112-48.3-112-107.9H58v169.1h256V170.2H298z"/>
	<path class="st1" d="M186,282.2c61.9,0,112-50.1,112-112H74C74,232.1,124.1,282.2,186,282.2z"/>
	<path class="st2" d="M298,170.2c0,61.9-50.1,112-112,112c-61.9,0-112-50.1-112-112"/>
	<polyline class="st2" points="282,226 282,106.2 88.8,106.2 88.8,226 	"/>
	<rect x="105.7" y="26.2" class="st3" width="160.3" height="192.3"/>
	<rect x="26" y="138.2" class="st3" width="16" height="48"/>
	<rect x="42" y="154.2" class="st3" width="46.8" height="15.7"/>
	<rect x="282" y="154.2" class="st3" width="63.2" height="15.7"/>
	<line class="st2" x1="42" y1="162.2" x2="88.8" y2="162.2"/>
	<line class="st2" x1="282" y1="162.2" x2="345.2" y2="162.2"/>
	<g>
		<line class="st2" x1="169.8" y1="58.2" x2="202.2" y2="58.2"/>
		<g>
			<line class="st2" x1="138.5" y1="74.7" x2="155" y2="74.7"/>
			<line class="st2" x1="170.8" y1="74.5" x2="186" y2="74.5"/>
			<line class="st2" x1="194.5" y1="74.2" x2="201.8" y2="74.2"/>
			<line class="st2" x1="209.2" y1="74.2" x2="234" y2="74.2"/>
			<line class="st2" x1="138.5" y1="91.2" x2="165.8" y2="91.2"/>
			<line class="st2" x1="176.2" y1="91.2" x2="191.2" y2="91.2"/>
			<line class="st2" x1="200.2" y1="91.2" x2="212" y2="91.2"/>
			<line class="st2" x1="219.5" y1="91.2" x2="232.8" y2="91.2"/>
			<line class="st2" x1="234" y1="122.7" x2="217.5" y2="122.7"/>
			<line class="st2" x1="201.8" y1="123" x2="186.5" y2="123"/>
			<line class="st2" x1="178" y1="123.2" x2="170.8" y2="123.2"/>
			<line class="st2" x1="163.2" y1="123.2" x2="138.5" y2="123.2"/>
			<line class="st2" x1="234" y1="106.2" x2="206.8" y2="106.2"/>
			<line class="st2" x1="196.2" y1="106.2" x2="181.2" y2="106.2"/>
			<line class="st2" x1="172.2" y1="106.2" x2="160.5" y2="106.2"/>
			<line class="st2" x1="153" y1="106.2" x2="139.8" y2="106.2"/>
		</g>
		<g>
			<line class="st2" x1="234" y1="186.2" x2="217.5" y2="186.2"/>
			<line class="st2" x1="201.8" y1="186.5" x2="186.5" y2="186.5"/>
			<line class="st2" x1="178" y1="186.7" x2="170.8" y2="186.7"/>
			<line class="st2" x1="163.2" y1="186.7" x2="138.5" y2="186.7"/>
			<line class="st2" x1="234" y1="169.7" x2="206.8" y2="169.7"/>
			<line class="st2" x1="196.2" y1="169.7" x2="181.2" y2="169.7"/>
			<line class="st2" x1="172.2" y1="169.7" x2="160.5" y2="169.7"/>
			<line class="st2" x1="153" y1="169.7" x2="139.8" y2="169.7"/>
			<line class="st2" x1="138.5" y1="138.2" x2="155" y2="138.2"/>
			<line class="st2" x1="170.8" y1="138" x2="186" y2="138"/>
			<line class="st2" x1="194.5" y1="137.7" x2="201.8" y2="137.7"/>
			<line class="st2" x1="209.2" y1="137.7" x2="234" y2="137.7"/>
			<line class="st2" x1="138.5" y1="154.7" x2="165.8" y2="154.7"/>
			<line class="st2" x1="176.2" y1="154.7" x2="191.2" y2="154.7"/>
			<line class="st2" x1="200.2" y1="154.7" x2="212" y2="154.7"/>
			<line class="st2" x1="219.5" y1="154.7" x2="232.8" y2="154.7"/>
		</g>
	</g>
	<g>
		<polyline class="st2" points="101.7,244 138.8,206.9 138.8,196.6 		"/>
		<polyline class="st2" points="109.2,251.7 154,206.9 154,196.6 		"/>
		<polyline class="st2" points="117.8,259 170,206.9 170,196.6 		"/>
	</g>
	<g>
		<polyline class="st2" points="270.3,244 233.2,206.9 233.2,196.6 		"/>
		<polyline class="st2" points="262.8,251.7 218,206.9 218,196.6 		"/>
		<polyline class="st2" points="254.2,259 202,206.9 202,196.6 		"/>
	</g>
	<rect x="73.5" y="266.2" class="st4" width="16" height="16"/>
	<rect x="298" y="27" class="st5" width="48" height="48"/>
	<rect x="74" y="298.2" class="st2" width="224" height="47.6"/>
	<g>
		<g>
			<rect x="93.9" y="311" class="st2" width="8" height="8"/>
			<rect x="109.9" y="311" class="st2" width="8" height="8"/>
			<rect x="125.9" y="311" class="st2" width="8" height="8"/>
			<rect x="141.9" y="311" class="st2" width="8" height="8"/>
		</g>
		<g>
			<rect x="157.9" y="311" class="st2" width="8" height="8"/>
			<rect x="173.9" y="311" class="st2" width="8" height="8"/>
			<rect x="189.9" y="311" class="st2" width="8" height="8"/>
			<rect x="205.9" y="311" class="st2" width="8" height="8"/>
		</g>
		<g>
			<rect x="221.9" y="311" class="st2" width="8" height="8"/>
			<rect x="237.9" y="311" class="st2" width="8" height="8"/>
			<rect x="253.9" y="311" class="st2" width="8" height="8"/>
			<rect x="269.9" y="311" class="st2" width="8" height="8"/>
		</g>
		<g>
			<rect x="93.9" y="326.2" class="st2" width="8" height="8"/>
			<rect x="109.9" y="326.2" class="st2" width="8" height="8"/>
			<rect x="125.9" y="326.2" class="st2" width="8" height="8"/>
			<rect x="141.9" y="326.2" class="st2" width="8" height="8"/>
		</g>
		<g>
			<rect x="157.9" y="326.2" class="st2" width="8" height="8"/>
			<rect x="173.9" y="326.2" class="st2" width="8" height="8"/>
			<rect x="189.9" y="326.2" class="st2" width="8" height="8"/>
			<rect x="205.9" y="326.2" class="st2" width="8" height="8"/>
		</g>
		<g>
			<rect x="221.9" y="326.2" class="st2" width="8" height="8"/>
			<rect x="237.9" y="326.2" class="st2" width="8" height="8"/>
			<rect x="253.9" y="326.2" class="st2" width="8" height="8"/>
			<rect x="269.9" y="326.2" class="st2" width="8" height="8"/>
		</g>
	</g>
</g>
</svg>
