<?xml version="1.0" encoding="utf-8"?>
<!-- Generator: Adobe Illustrator 21.0.0, SVG Export Plug-In . SVG Version: 6.00 Build 0)  -->
<svg version="1.1" id="Layer_1" xmlns="http://www.w3.org/2000/svg" xmlns:xlink="http://www.w3.org/1999/xlink" x="0px" y="0px"
	 viewBox="0 0 372 372" style="enable-background:new 0 0 372 372;" xml:space="preserve">
<style type="text/css">
	.st0{fill:#ED4F3E;}
	.st1{fill:none;stroke:#30241C;stroke-width:4;stroke-miterlimit:10;}
	.st2{fill:#D3DBDD;}
	.st3{fill:#BAC4C6;}
	.st4{fill:#64CDF2;}
	.st5{fill:#3AB1CC;}
	
		.st6{fill:none;stroke:#30241C;stroke-width:4;stroke-linecap:round;stroke-linejoin:round;stroke-miterlimit:10;stroke-dasharray:0.501,20;}
	.st7{fill:none;stroke:#30241C;stroke-width:4;stroke-linecap:round;stroke-linejoin:round;}
	.st8{fill:none;stroke:#30241C;stroke-width:4;stroke-linecap:round;stroke-linejoin:round;stroke-dasharray:0.4531,18.0866;}
</style>
<g>
	<g>
		<polygon class="st0" points="174.8,129.6 185,170.6 132,170.6 133.1,138.2 163.6,123 		"/>
		<path class="st1" d="M154,58c0,0,28.4,2.3,43.1-10.2l4.1-13c0,0,1.9-5.4-11-10.1C173.8,18.6,145.4,34.5,154,58z"/>
		<path class="st1" d="M197.1,47.8c0,0,6.7,11,18.8,10c0,0,5.8-20.6-14.7-23.1L197.1,47.8z"/>
		<path class="st1" d="M216,58c0,0-0.8,16.4-4.9,30.5c-4.1,14.1-26.1,18.8-26.1,18.8s-22-4.7-26.1-18.8C154.9,74.4,154,58,154,58"/>
		<path class="st1" d="M154,61.7c0,0-4.4-1.6-6.7,4.1c-3.4,8.2,9.8,15.5,9.8,15.5"/>
		<path class="st1" d="M216.1,61.7c0,0,4.4-1.6,6.7,4.1c3.4,8.2-9.8,15.5-9.8,15.5"/>
		<polyline class="st1" points="169.2,100.8 168.3,116.4 185,122.6 180.5,133 161.4,121.7 		"/>
		<polygon class="st0" points="195.2,129.6 185,170.6 238,170.6 236.9,138.2 206.4,123 		"/>
		<polyline class="st1" points="200.8,100.8 201.7,116.4 185,122.6 189.5,133 208.6,121.7 		"/>
	</g>
	<g>
		<polygon class="st2" points="282.7,302.2 292.9,343.2 240,343.2 241,310.7 271.6,295.5 		"/>
		<path class="st2" d="M261.9,230.5c0,0,28.4,2.3,43.1-10.2l4.1-13c0,0,1.9-5.4-11-10.1C281.7,191.2,253.3,207,261.9,230.5z"/>
		<path class="st3" d="M305,220.3c0,0,6.7,11,18.8,10c0,0,5.8-20.6-14.7-23.1L305,220.3z"/>
		<path class="st1" d="M323.9,230.5c0,0-0.8,16.4-4.9,30.5c-4.1,14.1-26.1,18.8-26.1,18.8s-22-4.7-26.1-18.8
			c-4.1-14.1-4.9-30.5-4.9-30.5"/>
		<path class="st1" d="M261.9,234.3c0,0-4.4-1.6-6.7,4.1c-3.4,8.2,9.8,15.5,9.8,15.5"/>
		<path class="st1" d="M324,234.3c0,0,4.4-1.6,6.7,4.1c3.4,8.2-9.8,15.5-9.8,15.5"/>
		<polyline class="st1" points="277.1,273.3 276.2,288.9 292.9,295.1 288.4,305.5 269.3,294.2 		"/>
		<polygon class="st3" points="303.1,302.2 292.9,343.2 345.9,343.2 344.9,310.7 314.3,295.5 		"/>
		<polyline class="st1" points="308.7,273.3 309.6,288.9 292.9,295.1 297.4,305.5 316.5,294.2 		"/>
	</g>
	<g>
		<polygon class="st4" points="67.9,302.2 78.1,343.2 25.1,343.2 26.1,310.7 56.7,295.5 		"/>
		<path class="st1" d="M47.1,230.5c0,0,28.4,2.3,43.1-10.2l4.1-13c0,0,1.9-5.4-11-10.1c-9.7-3.5-25.1-2.6-33,6.2"/>
		<path class="st1" d="M90.2,220.3c0,0,13-1.6,18.8,10c0,0,5.8-20.6-14.7-23.1L90.2,220.3z"/>
		<path class="st1" d="M109.1,230.5c0,0-0.8,16.4-4.9,30.5c-4.1,14.1-26.1,18.8-26.1,18.8s-22-4.7-26.1-18.8
			c-4.1-14.1-4.9-30.5-4.9-30.5"/>
		<path class="st1" d="M47.1,234.3c0,0-4.4-1.6-6.7,4.1c-3.4,8.2,9.8,15.5,9.8,15.5"/>
		<path class="st1" d="M109.2,234.3c0,0,4.4-1.6,6.7,4.1c3.4,8.2-9.8,15.5-9.8,15.5"/>
		<polyline class="st1" points="62.3,273.3 61.4,288.9 78.1,295.1 73.6,305.5 54.5,294.2 		"/>
		<polygon class="st5" points="88.3,302.2 78.1,343.2 131,343.2 130,310.7 99.4,295.5 		"/>
		<polyline class="st1" points="93.9,273.3 94.8,288.9 78.1,295.1 82.6,305.5 101.7,294.2 		"/>
		<path class="st1" d="M61.6,284.5H35.1c0,0-2.6-7.1-3.1-23.9c-0.4-16.9,1.9-41.3,18.6-57.5"/>
		<path class="st1" d="M96.4,284.5h16.7c0,0,1.7-4.4,1.9-15.1c0.2-5.8-0.2-13.1-2.3-20.1"/>
	</g>
	<line class="st6" x1="172.2" y1="261.8" x2="119.7" y2="296.2"/>
	<line class="st6" x1="197.6" y1="261.8" x2="250" y2="296.2"/>
	<g>
		<g>
			<line class="st7" x1="185.7" y1="238.7" x2="185.7" y2="238.4"/>
			<line class="st8" x1="185.7" y1="220.3" x2="185.7" y2="192.3"/>
			<line class="st7" x1="185.7" y1="183.3" x2="185.7" y2="183"/>
		</g>
	</g>
	<circle class="st0" cx="185.7" cy="253.9" r="6.7"/>
</g>
</svg>
