<svg id="Layer_1" data-name="Layer 1" xmlns="http://www.w3.org/2000/svg" viewBox="0 0 372 372"><defs><style>.cls-1{fill:#d3dbdd;}.cls-2{fill:#bac4c6;}.cls-3{fill:none;}.cls-3,.cls-4{stroke:#30241c;stroke-miterlimit:10;stroke-width:4px;}.cls-4{fill:#fff;}.cls-5{fill:#ed4f3e;}.cls-6{fill:#64cdf2;}</style></defs><title>Artboard 1</title><path class="cls-1" d="M298,170.21c0,59.57-50.14,107.85-112,107.85S74,229.77,74,170.21H58V339.29H314V170.21Z"/><path class="cls-2" d="M186,282.21a112,112,0,0,0,112-112H74A112,112,0,0,0,186,282.21Z"/><path class="cls-3" d="M298,170.21a112,112,0,1,1-224,0"/><polyline class="cls-3" points="282 225.96 282 106.21 88.84 106.21 88.84 225.96"/><rect class="cls-4" x="105.67" y="26.21" width="160.33" height="192.33"/><rect class="cls-4" x="26" y="138.21" width="16" height="48"/><rect class="cls-4" x="42" y="154.21" width="46.84" height="15.67"/><rect class="cls-4" x="282" y="154.21" width="63.17" height="15.67"/><line class="cls-3" x1="42" y1="162.21" x2="88.84" y2="162.21"/><line class="cls-3" x1="282" y1="162.21" x2="345.17" y2="162.21"/><line class="cls-3" x1="169.75" y1="58.21" x2="202.25" y2="58.21"/><line class="cls-3" x1="138.5" y1="74.71" x2="155" y2="74.71"/><line class="cls-3" x1="170.75" y1="74.46" x2="186" y2="74.46"/><line class="cls-3" x1="194.5" y1="74.21" x2="201.75" y2="74.21"/><line class="cls-3" x1="209.25" y1="74.21" x2="234" y2="74.21"/><line class="cls-3" x1="138.5" y1="91.21" x2="165.75" y2="91.21"/><line class="cls-3" x1="176.25" y1="91.21" x2="191.25" y2="91.21"/><line class="cls-3" x1="200.25" y1="91.21" x2="212" y2="91.21"/><line class="cls-3" x1="219.5" y1="91.21" x2="232.75" y2="91.21"/><line class="cls-3" x1="234" y1="122.71" x2="217.5" y2="122.71"/><line class="cls-3" x1="201.75" y1="122.96" x2="186.5" y2="122.96"/><line class="cls-3" x1="178" y1="123.21" x2="170.75" y2="123.21"/><line class="cls-3" x1="163.25" y1="123.21" x2="138.5" y2="123.21"/><line class="cls-3" x1="234" y1="106.21" x2="206.75" y2="106.21"/><line class="cls-3" x1="196.25" y1="106.21" x2="181.25" y2="106.21"/><line class="cls-3" x1="172.25" y1="106.21" x2="160.5" y2="106.21"/><line class="cls-3" x1="153" y1="106.21" x2="139.75" y2="106.21"/><line class="cls-3" x1="234" y1="186.21" x2="217.5" y2="186.21"/><line class="cls-3" x1="201.75" y1="186.46" x2="186.5" y2="186.46"/><line class="cls-3" x1="178" y1="186.71" x2="170.75" y2="186.71"/><line class="cls-3" x1="163.25" y1="186.71" x2="138.5" y2="186.71"/><line class="cls-3" x1="234" y1="169.71" x2="206.75" y2="169.71"/><line class="cls-3" x1="196.25" y1="169.71" x2="181.25" y2="169.71"/><line class="cls-3" x1="172.25" y1="169.71" x2="160.5" y2="169.71"/><line class="cls-3" x1="153" y1="169.71" x2="139.75" y2="169.71"/><line class="cls-3" x1="138.5" y1="138.21" x2="155" y2="138.21"/><line class="cls-3" x1="170.75" y1="137.96" x2="186" y2="137.96"/><line class="cls-3" x1="194.5" y1="137.71" x2="201.75" y2="137.71"/><line class="cls-3" x1="209.25" y1="137.71" x2="234" y2="137.71"/><line class="cls-3" x1="138.5" y1="154.71" x2="165.75" y2="154.71"/><line class="cls-3" x1="176.25" y1="154.71" x2="191.25" y2="154.71"/><line class="cls-3" x1="200.25" y1="154.71" x2="212" y2="154.71"/><line class="cls-3" x1="219.5" y1="154.71" x2="232.75" y2="154.71"/><polyline class="cls-3" points="101.71 243.96 138.79 206.88 138.79 196.58"/><polyline class="cls-3" points="109.17 251.71 154 206.88 154 196.58"/><polyline class="cls-3" points="117.83 259.05 170 206.88 170 196.58"/><polyline class="cls-3" points="270.29 243.96 233.21 206.88 233.21 196.58"/><polyline class="cls-3" points="262.83 251.71 218 206.88 218 196.58"/><polyline class="cls-3" points="254.17 259.05 202 206.88 202 196.58"/><rect class="cls-5" x="73.5" y="266.21" width="16" height="16"/><rect class="cls-6" x="298" y="26.96" width="48" height="48"/><rect class="cls-3" x="74" y="298.21" width="224" height="47.58"/><rect class="cls-3" x="93.86" y="311.04" width="8" height="8"/><rect class="cls-3" x="109.86" y="311.04" width="8" height="8"/><rect class="cls-3" x="125.86" y="311.04" width="8" height="8"/><rect class="cls-3" x="141.86" y="311.04" width="8" height="8"/><rect class="cls-3" x="157.86" y="311.04" width="8" height="8"/><rect class="cls-3" x="173.86" y="311.04" width="8" height="8"/><rect class="cls-3" x="189.86" y="311.04" width="8" height="8"/><rect class="cls-3" x="205.86" y="311.04" width="8" height="8"/><rect class="cls-3" x="221.86" y="311.04" width="8" height="8"/><rect class="cls-3" x="237.86" y="311.04" width="8" height="8"/><rect class="cls-3" x="253.86" y="311.04" width="8" height="8"/><rect class="cls-3" x="269.86" y="311.04" width="8" height="8"/><rect class="cls-3" x="93.86" y="326.21" width="8" height="8"/><rect class="cls-3" x="109.86" y="326.21" width="8" height="8"/><rect class="cls-3" x="125.86" y="326.21" width="8" height="8"/><rect class="cls-3" x="141.86" y="326.21" width="8" height="8"/><rect class="cls-3" x="157.86" y="326.21" width="8" height="8"/><rect class="cls-3" x="173.86" y="326.21" width="8" height="8"/><rect class="cls-3" x="189.86" y="326.21" width="8" height="8"/><rect class="cls-3" x="205.86" y="326.21" width="8" height="8"/><rect class="cls-3" x="221.86" y="326.21" width="8" height="8"/><rect class="cls-3" x="237.86" y="326.21" width="8" height="8"/><rect class="cls-3" x="253.86" y="326.21" width="8" height="8"/><rect class="cls-3" x="269.86" y="326.21" width="8" height="8"/></svg>