<svg id="Layer_1" data-name="Layer 1" xmlns="http://www.w3.org/2000/svg" viewBox="0 0 372 372"><defs><style>.cls-1{fill:#64cdf2;}.cls-2{fill:#ed4f3e;}.cls-3{fill:none;stroke:#30241c;stroke-miterlimit:10;stroke-width:4px;}</style></defs><title>business</title><rect class="cls-1" x="33.97" y="330" width="24" height="16"/><rect class="cls-1" x="65.97" y="322.33" width="24" height="23.67"/><rect class="cls-1" x="97.97" y="311" width="24" height="35"/><rect class="cls-1" x="129.97" y="302.33" width="24" height="43.67"/><rect class="cls-1" x="161.97" y="266" width="24" height="80"/><rect class="cls-1" x="193.97" y="250" width="24" height="96"/><rect class="cls-1" x="225.97" y="250" width="24" height="96"/><rect class="cls-1" x="257.97" y="250" width="24" height="96"/><rect class="cls-1" x="289.97" y="250" width="24" height="96"/><rect class="cls-1" x="321.97" y="250" width="24" height="96"/><rect class="cls-2" x="193.97" y="218" width="24" height="32"/><rect class="cls-2" x="225.97" y="170" width="24" height="80"/><rect class="cls-2" x="257.97" y="138" width="24" height="112"/><rect class="cls-2" x="289.97" y="106" width="24" height="144"/><rect class="cls-2" x="321.97" y="57.5" width="24" height="192.5"/><polyline class="cls-3" points="346.03 45.5 345.97 26 326.38 26"/><line class="cls-3" x1="345.97" y1="26" x2="26.68" y2="345.29"/><line class="cls-3" x1="25.97" y1="26" x2="41.97" y2="26"/><line class="cls-3" x1="25.97" y1="42" x2="33.97" y2="42"/><line class="cls-3" x1="25.97" y1="57.5" x2="33.97" y2="57.5"/><line class="cls-3" x1="25.97" y1="74" x2="33.97" y2="74"/><line class="cls-3" x1="25.97" y1="90" x2="41.97" y2="90"/><line class="cls-3" x1="25.97" y1="106.01" x2="33.97" y2="106.01"/><line class="cls-3" x1="25.97" y1="121.51" x2="33.97" y2="121.51"/><line class="cls-3" x1="25.97" y1="138.01" x2="33.97" y2="138.01"/><line class="cls-3" x1="25.97" y1="154" x2="41.97" y2="154"/><line class="cls-3" x1="25.97" y1="170" x2="33.97" y2="170"/><line class="cls-3" x1="25.97" y1="185.5" x2="33.97" y2="185.5"/><line class="cls-3" x1="25.97" y1="202" x2="33.97" y2="202"/><line class="cls-3" x1="25.97" y1="218" x2="41.97" y2="218"/><line class="cls-3" x1="25.97" y1="234.01" x2="33.97" y2="234.01"/><line class="cls-3" x1="25.97" y1="249.51" x2="33.97" y2="249.51"/><line class="cls-3" x1="25.97" y1="266.01" x2="33.97" y2="266.01"/><line class="cls-3" x1="25.97" y1="282" x2="41.97" y2="282"/><line class="cls-3" x1="25.97" y1="298" x2="33.97" y2="298"/><line class="cls-3" x1="25.97" y1="313.5" x2="33.97" y2="313.5"/><line class="cls-3" x1="25.97" y1="330" x2="33.97" y2="330"/></svg>