<svg id="Layer_1" data-name="Layer 1" xmlns="http://www.w3.org/2000/svg" viewBox="0 0 372 372"><defs><style>.cls-1{fill:#64cdf2;}.cls-2{fill:#bac4c6;}.cls-3{fill:#d3dbdd;}.cls-4,.cls-8{fill:none;stroke:#30241c;stroke-miterlimit:10;stroke-width:4px;}.cls-4{stroke-linecap:round;stroke-dasharray:1 17.94;}.cls-5{fill:#3ab1cc;}.cls-6{fill:#ed4f3e;}.cls-7{fill:#fff;}</style></defs><title>game-design</title><circle class="cls-1" cx="186.64" cy="186.79" r="134.5"/><path class="cls-2" d="M342.2,282c-3-21-10.67-81.5-10.67-81.5s-10.5-51.17-59.67-51.17c0,0-35.83-.67-51.17,26H151.3c-15.33-26.67-51.17-26-51.17-26-49.17,0-59.67,51.17-59.67,51.17S32.8,261,29.8,282s-2.67,34.5,3,45.5,21.33,18.67,33,18.67,22.33-5,26.17-10S130.3,288,137.64,278s16.5-9.33,16.5-9.33h63.73S227,268,234.36,278,276.2,331.21,280,336.21s14.5,10,26.17,10,27.33-7.67,33-18.67S345.2,303,342.2,282Z"/><circle class="cls-3" cx="100.05" cy="212.13" r="43.92"/><circle class="cls-4" cx="100.05" cy="212.13" r="54.25"/><circle class="cls-3" cx="271.95" cy="212.12" r="43.25"/><polygon class="cls-5" points="122.05 205 107.18 205 107.18 190.13 92.93 190.13 92.93 205 78.05 205 78.05 219.25 92.93 219.25 92.93 234.13 107.18 234.13 107.18 219.25 122.05 219.25 122.05 205"/><circle class="cls-6" cx="271.95" cy="189.38" r="7.83"/><circle class="cls-2" cx="271.95" cy="234.88" r="7.83"/><circle class="cls-5" cx="249.2" cy="212.13" r="7.83"/><circle class="cls-7" cx="294.7" cy="212.13" r="7.83"/><rect class="cls-8" x="170.14" y="168.88" width="32" height="13"/><path class="cls-8" d="M186,168.88v-21.4s.13-15.22-15.09-15.22H140.48s-15.22,0-15.22-15.22,15.22-15.22,15.22-15.22H231.8s15.22,0,15.22-15.22c0,0,0-15.22-15.22-15.22H79.59s-15.22,0-15.22-15.22S79.59,40.93,79.59,40.93H292.68s15.22,0,15.22-15.22"/><rect class="cls-8" x="169.89" y="210.04" width="8.25" height="8.25"/><rect class="cls-8" x="193.89" y="210.04" width="8.25" height="8.25"/></svg>