<svg id="Layer_1" data-name="Layer 1" xmlns="http://www.w3.org/2000/svg" viewBox="0 0 372 372"><defs><style>.cls-1{fill:#64cdf2;}.cls-2{fill:#bac4c6;}.cls-3{fill:#d3dbdd;}.cls-4{fill:none;}.cls-4,.cls-7{stroke:#30241c;stroke-miterlimit:10;stroke-width:4px;}.cls-5,.cls-7{fill:#fff;}.cls-6{fill:#ed4f3e;}</style></defs><title>hackid</title><path class="cls-1" d="M346,70a12,12,0,0,0-12-12H38A12,12,0,0,0,26,70V241.5H346Z"/><polygon class="cls-2" points="234 315 138 315 154.5 266 218 266 234 315"/><path class="cls-3" d="M38,266H334a12,12,0,0,0,12-12V241.5H26V254A12,12,0,0,0,38,266Z"/><line class="cls-4" x1="178.5" y1="253.75" x2="193.5" y2="253.75"/><rect class="cls-5" x="73.67" y="73.33" width="112.33" height="161"/><rect class="cls-3" x="185.86" y="73.33" width="112.33" height="161"/><polygon class="cls-6" points="318.67 132 282.33 132 282.33 106 318.67 106 309.33 118.67 318.67 132"/><polygon class="cls-4" points="282 204.65 185.86 234.33 185.86 73.33 282 43.65 282 204.65"/><polygon class="cls-4" points="249.87 187 185.86 234.33 185.86 73.33 249.87 26 249.87 187"/><line class="cls-4" x1="90.5" y1="90" x2="121.5" y2="90"/><line class="cls-4" x1="90.5" y1="218" x2="105.75" y2="218"/><line class="cls-4" x1="90.5" y1="106" x2="170" y2="106"/><line class="cls-4" x1="90.5" y1="122" x2="170" y2="122"/><line class="cls-4" x1="90.5" y1="138" x2="170" y2="138"/><rect class="cls-6" x="85.33" y="178.33" width="53.33" height="14.67"/><line class="cls-4" x1="90.5" y1="154" x2="170" y2="154"/><line class="cls-4" x1="90.5" y1="170" x2="170" y2="170"/><line class="cls-4" x1="90.5" y1="186" x2="170" y2="186"/><polygon class="cls-7" points="266.73 335.13 233.58 257.55 311.16 290.7 294.71 307.15 316.93 329.37 305.68 340.62 283.46 318.4 266.73 335.13"/></svg>