<?xml version="1.0" encoding="utf-8"?>
<!-- Generator: Adobe Illustrator 21.0.0, SVG Export Plug-In . SVG Version: 6.00 Build 0)  -->
<svg version="1.1" id="Layer_1" xmlns="http://www.w3.org/2000/svg" xmlns:xlink="http://www.w3.org/1999/xlink" x="0px" y="0px"
	 viewBox="0 0 372 372" style="enable-background:new 0 0 372 372;" xml:space="preserve">
<style type="text/css">
	.st0{fill:#ED4F3E;}
	.st1{fill:#FFFFFF;stroke:#30241C;stroke-width:4;stroke-linejoin:round;stroke-miterlimit:10;}
	.st2{fill:none;stroke:#D3DBDD;stroke-width:0;stroke-linecap:round;stroke-linejoin:round;}
	.st3{fill:#D3DBDD;}
	.st4{fill:#3AB1CC;}
	.st5{fill:#BAC4C6;}
	.st6{fill:none;stroke:#30241C;stroke-width:4;stroke-miterlimit:10;}
	.st7{fill:#64CDF2;}
</style>
<g>
	<g>
		<polygon class="st0" points="185.9,85.7 138,85.7 26,85.7 26,345.9 138,345.9 185.9,345.9 346,345.9 346,85.7 		"/>
		<rect x="42" y="314.2" class="st1" width="144.5" height="16.2"/>
		<path class="st1" d="M170.3,73.9H42v16.2v16.2v207.7h128.2c9,0,16.2,7.3,16.2,16.2V90.2C186.5,81.2,179.3,73.9,170.3,73.9z"/>
		<rect x="186.5" y="314.2" class="st1" width="144.5" height="16.2"/>
		<path class="st1" d="M202.8,73.9H331v16.2v16.2v207.7H202.8c-9,0-16.2,7.3-16.2,16.2V90.2C186.5,81.2,193.8,73.9,202.8,73.9z"/>
	</g>
	<g>
		<line class="st2" x1="85.6" y1="284.5" x2="69.7" y2="268.6"/>
		<line class="st2" x1="98.9" y1="271.2" x2="83" y2="255.3"/>
		<line class="st2" x1="92.2" y1="277.8" x2="76.4" y2="262"/>
		<path class="st3" d="M315.3,322.6L305,312.3l2.9-2.9l-21-21l-2.9,2.9l-83-83l97.1-97.1l7-14.6h0l7-14.6l-14.6,7l0,0l-14.6,7
			l-97.1,97.1L88.8,96.1l-14.6-7l0,0l-14.6-7l7,14.6h0l7,14.6l97.1,97.1l-82.9,82.9l-2.9-2.9l-21,21l2.9,2.9l-10.4,10.4l15.1,15.1
			L82,327.3l2.9,2.9l21-21l-2.9-2.9l82.9-82.9l83,83l-2.8,2.8l21,21l2.8-2.8l10.3,10.3L315.3,322.6z M69.7,308.6l15.9,15.9
			L69.7,308.6z M76.4,302l15.9,15.9L76.4,302z M98.9,311.2L83,295.3L98.9,311.2z M288.9,295.3L273,311.2L288.9,295.3z M295.5,302
			l-15.9,15.9L295.5,302z M286.3,324.5l15.9-15.9L286.3,324.5z"/>
		<line class="st2" x1="286.3" y1="284.5" x2="302.1" y2="268.6"/>
		<line class="st2" x1="288.9" y1="255.3" x2="273" y2="271.2"/>
		<line class="st2" x1="279.6" y1="277.8" x2="295.5" y2="262"/>
	</g>
	<g>
		
			<rect x="17.1" y="150.3" transform="matrix(0.7071 -0.7071 0.7071 0.7071 -61.8658 172.481)" class="st4" width="320.3" height="21.3"/>
		<polygon class="st3" points="298.1,55.2 283,40.1 312.1,26.1 312.1,26.1 		"/>
		<polygon class="st4" points="305.1,40.7 297.5,33.1 312.1,26.1 312.1,26.1 		"/>
		
			<rect x="61.9" y="258.3" transform="matrix(0.7071 -0.7071 0.7071 0.7071 -169.9282 127.7276)" class="st4" width="14.7" height="21.3"/>
		
			<rect x="70.1" y="238.6" transform="matrix(0.7071 -0.7071 0.7071 0.7071 -154.235 134.2277)" class="st5" width="29.7" height="29.5"/>
		<line class="st6" x1="69.7" y1="252.6" x2="85.6" y2="268.5"/>
		<line class="st6" x1="83" y1="239.3" x2="98.9" y2="255.2"/>
		<line class="st6" x1="76.4" y1="246" x2="92.2" y2="261.8"/>
	</g>
	<g>
		
			<rect x="183.8" y="0.8" transform="matrix(0.7071 -0.7072 0.7072 0.7071 -56.8157 184.6928)" class="st7" width="21.3" height="320.3"/>
		<polygon class="st3" points="88.8,40.1 73.7,55.2 59.7,26.1 59.7,26.1 		"/>
		<polygon class="st7" points="74.2,33.1 66.7,40.7 59.7,26.1 59.7,26.1 		"/>
		
			<rect x="291.9" y="261.6" transform="matrix(0.7071 -0.7071 0.7071 0.7071 -101.5773 292.7527)" class="st7" width="21.3" height="14.7"/>
		
			<rect x="272.2" y="238.4" transform="matrix(0.7071 -0.7071 0.7071 0.7071 -95.0556 277.1001)" class="st5" width="29.5" height="29.7"/>
		<line class="st6" x1="302.1" y1="252.6" x2="286.3" y2="268.5"/>
		<line class="st6" x1="288.9" y1="239.3" x2="273" y2="255.2"/>
		<line class="st6" x1="295.5" y1="246" x2="279.6" y2="261.8"/>
	</g>
</g>
</svg>
