<svg id="Layer_1" data-name="Layer 1" xmlns="http://www.w3.org/2000/svg" viewBox="0 0 372 372"><defs><style>.cls-1{fill:#3ab1cc;}.cls-2{fill:#64cdf2;}.cls-3{fill:#bac4c6;}.cls-4{fill:#d3dbdd;}.cls-5{fill:#fff;}.cls-5,.cls-6{stroke:#30241c;stroke-miterlimit:10;stroke-width:4px;}.cls-6{fill:none;}.cls-7{fill:#ed4f3e;}</style></defs><title>learning-technologies</title><path class="cls-1" d="M41.87,309.08l-16,36.67H54.75a77.6,77.6,0,0,0-12-36.82Z"/><path class="cls-1" d="M330.12,309.08l-.33-.06a77.57,77.57,0,0,0-12,36.73h28.32Z"/><path class="cls-2" d="M285.45,294.75a185.08,185.08,0,0,1-43.6-25.62,61.85,61.85,0,0,1-111.71,0,185.06,185.06,0,0,1-43.6,25.62c-24.89,10.13-40.22,13.47-43.83,14.18a77.6,77.6,0,0,1,12,36.82H317.8a77.57,77.57,0,0,1,12-36.73C327.39,308.58,311.76,305.46,285.45,294.75Z"/><path class="cls-3" d="M186,304.42a61.83,61.83,0,0,0,55.86-35.29c-9.48-7.64-15.73-14.87-15.73-19.38v-48H145.87v48c0,4.51-6.25,11.73-15.73,19.38A61.83,61.83,0,0,0,186,304.42Z"/><path class="cls-4" d="M248.38,113.83s4.24-2.82,10.9,0,8.88,28-10.9,36.41c0,0-4,26.88-7.27,38.79S204.34,226.75,186,226.75,134.1,201,130.87,189s-7.27-38.79-7.27-38.79c-19.78-8.45-17.56-33.59-10.9-36.41s10.9,0,10.9,0c0-11.24.57-15,8.62-23.43,8.81-9.21,19.13-17.6,31.38-21.67,10.66-3.54,21.72-3.74,32.78-5.17,6.86-.89,16.11-2.33,23.08-.19,11.38,3.49,21.26,13.41,26,24.17C246.75,90.45,251.91,111.49,248.38,113.83Z"/><path class="cls-3" d="M122.75,121.75s4.82-27.5,24.76-27.5h58.29s16.66,1.5,15.12-20.5c0,0,0,19.5,14,19.5s15.11,28.5,15.11,28.5h0s1.09-3.67,4.63-16c5.68-19.75.2-64-33.77-64,0,0-3-16-25.86-16s-44.27,6.5-61.58,27.5C116.75,73.56,122.75,121.75,122.75,121.75Z"/><rect class="cls-5" x="116.13" y="105.75" width="140.51" height="48"/><rect class="cls-6" x="121.58" y="153.75" width="129.62" height="8.63"/><rect class="cls-6" x="121.58" y="97.13" width="129.62" height="8.63"/><path class="cls-6" d="M116.13,121.75h-10s-16,0-16,16v208.5"/><rect class="cls-7" x="124.75" y="114.37" width="7.38" height="7.38"/><rect class="cls-2" x="138.13" y="114.37" width="7.38" height="7.38"/><line class="cls-6" x1="282.13" y1="105.75" x2="346.13" y2="105.75"/><line class="cls-6" x1="282.13" y1="122" x2="346.13" y2="122"/><line class="cls-6" x1="282.13" y1="137.75" x2="346.13" y2="137.75"/><line class="cls-6" x1="282.13" y1="153.75" x2="315.63" y2="153.75"/><circle class="cls-6" cx="50.13" cy="49.75" r="24"/><circle class="cls-6" cx="122.13" cy="57.75" r="16"/><circle class="cls-6" cx="58.13" cy="121.75" r="20"/><line class="cls-6" x1="42.13" y1="49.75" x2="58.13" y2="49.75"/><line class="cls-6" x1="117.63" y1="57.75" x2="126.63" y2="57.75"/><line class="cls-6" x1="50.13" y1="41.75" x2="50.13" y2="57.75"/><polygon class="cls-6" points="54.91 116.13 54.91 127.87 63.35 122 54.91 116.13"/></svg>