<svg id="Layer_1" data-name="Layer 1" xmlns="http://www.w3.org/2000/svg" viewBox="0 0 372 372"><defs><style>.cls-1{fill:#d3dbdd;}.cls-2{fill:none;}.cls-2,.cls-3{stroke:#30241c;stroke-miterlimit:10;stroke-width:4px;}.cls-3,.cls-6{fill:#fff;}.cls-4{fill:#64cdf2;}.cls-5{fill:#bac4c6;}.cls-7{fill:#ed4f3e;}</style></defs><title>presentation-design</title><ellipse class="cls-1" cx="185.34" cy="338" rx="119.24" ry="8"/><line class="cls-2" x1="86.53" y1="338" x2="107.17" y2="240.87"/><line class="cls-2" x1="285.47" y1="338" x2="264.83" y2="240.87"/><line class="cls-2" x1="100.31" y1="273.17" x2="272.01" y2="273.17"/><circle class="cls-3" cx="87.53" cy="331.93" r="6.07"/><circle class="cls-3" cx="285.47" cy="331.93" r="6.07"/><polyline class="cls-2" points="138 42 138 26 234 26 234 42"/><rect class="cls-4" x="26" y="42" width="320" height="16"/><rect class="cls-4" x="26" y="234" width="320" height="16"/><rect class="cls-1" x="32" y="58" width="308" height="176"/><polygon class="cls-5" points="340 58 110.37 58 296.04 234 340 234 340 58"/><circle class="cls-6" cx="129.38" cy="145.87" r="55.88"/><path class="cls-5" d="M168.25,145.87a38.68,38.68,0,0,0-6.51-21.54l-32.36,21.54Z"/><path class="cls-4" d="M161.74,124.34a38.87,38.87,0,0,0-59.63-6.16l27.27,27.7Z"/><path class="cls-1" d="M129.38,145.87l29.08,25.79a38.72,38.72,0,0,0,9.8-25.79Z"/><path class="cls-7" d="M102.1,118.18a38.87,38.87,0,1,0,56.35,53.49l-29.08-25.79Z"/><circle class="cls-6" cx="129.38" cy="145.87" r="19"/><line class="cls-2" x1="217.67" y1="89.67" x2="299" y2="89.67"/><line class="cls-2" x1="217.67" y1="106" x2="299" y2="106"/><line class="cls-2" x1="217.67" y1="122" x2="299" y2="122"/><line class="cls-2" x1="239.67" y1="196.31" x2="299" y2="196.31"/><line class="cls-2" x1="239.67" y1="179.81" x2="299" y2="179.81"/><line class="cls-2" x1="239.67" y1="163.81" x2="299" y2="163.81"/><line class="cls-2" x1="217.67" y1="138" x2="233" y2="138"/><rect class="cls-7" x="217.67" y="158.37" width="10.88" height="10.88"/><rect class="cls-4" x="217.67" y="174.37" width="10.88" height="10.88"/><rect class="cls-5" x="217.67" y="190.87" width="10.88" height="10.88"/></svg>