<svg id="Layer_1" data-name="Layer 1" xmlns="http://www.w3.org/2000/svg" viewBox="0 0 372 372"><defs><style>.cls-1{fill:#d3dbdd;}.cls-2{fill:none;stroke:#30241c;stroke-miterlimit:10;stroke-width:4px;}.cls-3{fill:#ed4f3e;}.cls-4{fill:#64cdf2;}</style></defs><title>project-management</title><rect class="cls-1" x="106" y="138" width="160" height="96"/><circle class="cls-2" cx="50" cy="186" r="24"/><circle class="cls-2" cx="322" cy="186" r="24"/><circle class="cls-2" cx="186" cy="322" r="24"/><circle class="cls-3" cx="90" cy="322" r="24"/><circle class="cls-4" cx="282" cy="322" r="24"/><circle class="cls-2" cx="186" cy="50" r="24"/><circle class="cls-3" cx="282" cy="50" r="24"/><circle class="cls-4" cx="90" cy="50" r="24"/><line class="cls-2" x1="186" y1="138" x2="186" y2="90"/><polyline class="cls-2" points="175.33 100.67 186 90 196.67 100.67"/><line class="cls-2" x1="186" y1="234" x2="186" y2="282"/><polyline class="cls-2" points="196.67 271.33 186 282 175.33 271.33"/><polyline class="cls-2" points="90 282 90 218 106 218"/><polyline class="cls-2" points="100.67 271.33 90 282 79.33 271.33"/><polyline class="cls-2" points="90 90 90 154 106 154"/><polyline class="cls-2" points="100.67 100.67 90 90 79.33 100.67"/><polyline class="cls-2" points="282 90 282 154 266 154"/><polyline class="cls-2" points="271.33 100.67 282 90 292.67 100.67"/><polyline class="cls-2" points="282 282 282 218 266 218"/><polyline class="cls-2" points="271.33 271.33 282 282 292.67 271.33"/><line class="cls-2" x1="265.87" y1="186" x2="327.53" y2="186"/><polyline class="cls-2" points="316.87 175.33 327.53 186 316.87 196.67"/><line class="cls-2" x1="105.86" y1="186" x2="44.2" y2="186"/><polyline class="cls-2" points="54.86 196.67 44.2 186 54.86 175.33"/></svg>