<?xml version="1.0" encoding="utf-8"?>
<!-- Generator: Adobe Illustrator 21.0.0, SVG Export Plug-In . SVG Version: 6.00 Build 0)  -->
<svg version="1.1" id="Layer_1" xmlns="http://www.w3.org/2000/svg" xmlns:xlink="http://www.w3.org/1999/xlink" x="0px" y="0px"
	 viewBox="0 0 372 372" style="enable-background:new 0 0 372 372;" xml:space="preserve">
<style type="text/css">
	.st0{fill:#BAC4C6;}
	.st1{fill:#D3DBDD;}
	.st2{fill:#FFFFFF;}
	.st3{fill:#ED4F3E;}
	.st4{fill:#64CDF2;}
	.st5{fill:none;stroke:#30241C;stroke-width:4;stroke-miterlimit:10;}
</style>
<g>
	<path class="st0" d="M33.4,190.1V38c0-6.6,5.4-12,12-12h232c6.6,0,12,5.4,12,12v152.1"/>
	<path class="st1" d="M296.9,190.1c0,8.2-6.7,14.9-14.9,14.9H40.9c-8.2,0-14.9-6.7-14.9-14.9"/>
	<rect x="44.5" y="35" class="st2" width="234" height="146"/>
	<rect x="44.5" y="35" class="st1" width="25" height="146"/>
	<rect x="253.5" y="35" class="st1" width="25" height="146"/>
	<rect x="90" y="57.6" class="st3" width="144" height="45.9"/>
	<rect x="90" y="117.5" class="st4" width="24.5" height="24.5"/>
	<rect x="129.5" y="117.5" class="st4" width="24.5" height="24.5"/>
	<rect x="170" y="117.5" class="st4" width="24.5" height="24.5"/>
	<rect x="209.5" y="117.5" class="st4" width="24.5" height="24.5"/>
	<line class="st5" x1="69.5" y1="45.5" x2="253.5" y2="45.5"/>
	<line class="st5" x1="69.5" y1="154" x2="253.5" y2="154"/>
	<line class="st5" x1="137.1" y1="170" x2="185.9" y2="170"/>
	<path class="st1" d="M186.5,230.8c0-6.6,5.4-12,12-12H334c6.6,0,12,5.4,12,12V334c0,6.6-5.4,12-12,12H198.5c-6.6,0-12-5.4-12-12
		V230.8z"/>
	<path class="st0" d="M73.3,230.3c0-6.6,5.4-12,12-12H126c6.6,0,12,5.4,12,12V334c0,6.6-5.4,12-12,12H85.3c-6.6,0-12-5.4-12-12
		V230.3z"/>
	<rect x="197.5" y="229.5" class="st2" width="137.5" height="105.8"/>
	<rect x="208.5" y="249.2" class="st3" width="115.5" height="50.2"/>
	<rect x="208.5" y="308.9" class="st4" width="51.5" height="16.6"/>
	<rect x="272.3" y="308.9" class="st4" width="51.5" height="16.6"/>
	<line class="st5" x1="197.5" y1="239.8" x2="335" y2="239.8"/>
	<rect x="83.1" y="229.1" class="st2" width="44.4" height="100.9"/>
	<line class="st5" x1="83.1" y1="239.3" x2="127.5" y2="239.3"/>
	<rect x="87.3" y="252.9" class="st3" width="36.9" height="35"/>
	<rect x="87.3" y="294.4" class="st4" width="36.9" height="10.3"/>
	<rect x="87.3" y="308.8" class="st4" width="36.9" height="10.3"/>
	<circle class="st5" cx="102.8" cy="338.8" r="3.6"/>
	<polyline class="st5" points="242.2,80.6 314,80.6 314,206.9 	"/>
	<polyline class="st5" points="304.9,197.8 314,206.9 323.1,197.8 	"/>
	<polyline class="st5" points="163.1,265.3 154,274.4 163.1,283.4 	"/>
	<line class="st5" x1="266.2" y1="274.4" x2="154" y2="274.4"/>
	<polyline class="st5" points="51.1,227.3 42,218.2 32.9,227.3 	"/>
	<polyline class="st5" points="42,218.2 42,274.4 106.4,274.4 	"/>
</g>
</svg>
