<svg id="Layer_1" data-name="Layer 1" xmlns="http://www.w3.org/2000/svg" viewBox="0 0 372 372"><defs><style>.cls-1{fill:#d3dbdd;}.cls-2{fill:#64cdf2;}.cls-3{fill:#ed4f3e;}.cls-4{fill:none;stroke:#30241c;stroke-miterlimit:10;stroke-width:4px;}.cls-5{fill:#fff;}</style></defs><title>uxdesign</title><rect class="cls-1" x="83.01" y="32.02" width="192" height="32.99"/><rect class="cls-1" x="83.01" y="305.93" width="192" height="35.47"/><rect class="cls-2" x="83.01" y="65.01" width="192" height="240.82"/><rect class="cls-3" x="250.5" y="123.27" width="95.5" height="14.75"/><rect class="cls-4" x="90" y="25.98" width="192" height="320.04"/><rect class="cls-4" x="90" y="25.98" width="192" height="32.04"/><rect class="cls-4" x="90" y="298.84" width="192" height="47.18"/><line class="cls-4" x1="170" y1="42" x2="202" y2="42"/><circle class="cls-5" cx="182.78" cy="174.35" r="47"/><circle class="cls-4" cx="186" cy="169.69" r="47"/><path class="cls-4" d="M169.38,154.16s12.87.63,21.46-8.53c0,0,2.35,5.18,9.79,8.53a61.24,61.24,0,0,0,1-7.11c.51-5.17,0-6.91-1.42-9s-4.54-5.29-7-4c0,0-2.43-3.1-9.3-2.19s-11.63,2.61-14.06,9.41A22.92,22.92,0,0,0,169.38,154.16Z"/><path class="cls-4" d="M200.62,154.16s-1.8,9.3-2.45,11.73-9.54,10.24-13.21,11.53c-3.68-1.29-12.57-9.09-13.21-11.53s-2.45-11.73-2.45-11.73"/><path class="cls-4" d="M169,152.09s-1.68-.4-3,2.76,2.34,6.52,4.88,7.23"/><path class="cls-4" d="M201.2,152.09s1.68-.4,3,2.76-2.35,6.52-4.88,7.23"/><path class="cls-4" d="M176.58,180.77c.19.13,8.38,6.71,8.38,6.71l-4.19,5.8-7.35-8.06Z"/><path class="cls-4" d="M178.6,173.26s.29,5.54-1,8.3"/><path class="cls-4" d="M192,173.26s-.29,5.54,1,8.3"/><polyline class="cls-4" points="181.53 192.22 185.86 205.01 162.01 205.01 162.97 191.47 174.09 185.95"/><path class="cls-4" d="M195.15,180.77c-.19.13-8.38,6.71-8.38,6.71l4.19,5.8,7.35-8.06Z"/><polyline class="cls-4" points="190.2 192.22 185.86 205.01 209.72 205.01 208.75 191.47 197.63 185.95"/><line class="cls-4" x1="163.75" y1="234.52" x2="208.25" y2="234.52"/><line class="cls-4" x1="153.25" y1="322.43" x2="218.75" y2="322.43"/><line class="cls-4" x1="163.75" y1="248.77" x2="208.25" y2="248.77"/><rect class="cls-3" x="144.5" y="265.77" width="25.25" height="14"/><rect class="cls-5" x="202" y="265.77" width="25.25" height="14"/><rect class="cls-4" x="26" y="138.02" width="80.5" height="112"/><rect class="cls-4" x="250.5" y="76.52" width="79.5" height="29.5"/><line class="cls-4" x1="42" y1="154.02" x2="74" y2="154.02"/><line class="cls-4" x1="42" y1="170.02" x2="74" y2="170.02"/><line class="cls-4" x1="42" y1="186.02" x2="74" y2="186.02"/><line class="cls-4" x1="42" y1="202.02" x2="74" y2="202.02"/><line class="cls-4" x1="42" y1="234.02" x2="58" y2="234.02"/></svg>